<mxfile host="app.diagrams.net" agent="Mozilla/5.0 (Windows NT 10.0; Win64; x64) AppleWebKit/537.36 (KHTML, like Gecko) Chrome/128.0.0.0 Safari/537.36" version="24.7.12">
  <diagram name="Page-1" id="NgqT9x8DgxrHXjxFqRMv">
    <mxGraphModel dx="1050" dy="583" grid="1" gridSize="10" guides="1" tooltips="1" connect="1" arrows="1" fold="1" page="1" pageScale="1" pageWidth="850" pageHeight="1100" math="0" shadow="0">
      <root>
        <mxCell id="0" />
        <mxCell id="1" parent="0" />
        <mxCell id="3agY1jlstQZVv7fs6GUp-1" value="&lt;b&gt;Providers&lt;/b&gt;" style="rounded=1;whiteSpace=wrap;html=1;fillColor=#dae8fc;gradientColor=#7ea6e0;strokeColor=#6c8ebf;" vertex="1" parent="1">
          <mxGeometry x="520" y="80" width="190" height="130" as="geometry" />
        </mxCell>
        <mxCell id="3agY1jlstQZVv7fs6GUp-3" style="edgeStyle=orthogonalEdgeStyle;rounded=0;orthogonalLoop=1;jettySize=auto;html=1;entryX=0;entryY=0.5;entryDx=0;entryDy=0;" edge="1" parent="1" source="3agY1jlstQZVv7fs6GUp-6" target="3agY1jlstQZVv7fs6GUp-1">
          <mxGeometry relative="1" as="geometry" />
        </mxCell>
        <mxCell id="3agY1jlstQZVv7fs6GUp-2" value="&lt;b&gt;IaaC&lt;/b&gt;" style="rounded=0;whiteSpace=wrap;html=1;fillColor=#f8cecc;gradientColor=#ea6b66;strokeColor=#b85450;" vertex="1" parent="1">
          <mxGeometry y="80" width="180" height="130" as="geometry" />
        </mxCell>
        <mxCell id="3agY1jlstQZVv7fs6GUp-5" value="&lt;b&gt;API&lt;/b&gt;" style="ellipse;whiteSpace=wrap;html=1;" vertex="1" parent="1">
          <mxGeometry x="340" y="105" width="120" height="80" as="geometry" />
        </mxCell>
        <mxCell id="3agY1jlstQZVv7fs6GUp-8" value="" style="edgeStyle=orthogonalEdgeStyle;rounded=0;orthogonalLoop=1;jettySize=auto;html=1;entryX=0;entryY=0.5;entryDx=0;entryDy=0;" edge="1" parent="1" source="3agY1jlstQZVv7fs6GUp-2" target="3agY1jlstQZVv7fs6GUp-6">
          <mxGeometry relative="1" as="geometry">
            <mxPoint x="180" y="145" as="sourcePoint" />
            <mxPoint x="520" y="145" as="targetPoint" />
          </mxGeometry>
        </mxCell>
        <mxCell id="3agY1jlstQZVv7fs6GUp-6" value="&lt;b&gt;Auth&lt;/b&gt;" style="rounded=0;whiteSpace=wrap;html=1;fillColor=#d5e8d4;gradientColor=#97d077;strokeColor=#82b366;" vertex="1" parent="1">
          <mxGeometry x="230" y="127.5" width="90" height="35" as="geometry" />
        </mxCell>
      </root>
    </mxGraphModel>
  </diagram>
</mxfile>
